<?xml version="1.0" standalone="no"?>
<!DOCTYPE svg PUBLIC "-//W3C//DTD SVG 20010904//EN"
 "http://www.w3.org/TR/2001/REC-SVG-20010904/DTD/svg10.dtd">
<svg version="1.0" xmlns="http://www.w3.org/2000/svg"
 width="1024.000000pt" height="1024.000000pt" viewBox="0 0 1024.000000 1024.000000"
 preserveAspectRatio="xMidYMid meet">

<g transform="translate(0.000000,1024.000000) scale(0.100000,-0.100000)"
fill="#000000" stroke="none">
<path d="M7708 9633 l-38 -4 0 -48 0 -48 -77 -11 -78 -10 75 5 c41 3 78 7 83
10 4 2 7 24 7 49 0 44 0 44 35 44 19 0 35 5 35 10 0 6 -1 9 -2 8 -2 -1 -20 -3
-40 -5z"/>
<path d="M7768 9523 c12 -2 30 -2 40 0 9 3 -1 5 -23 4 -22 0 -30 -2 -17 -4z"/>
<path d="M7843 9513 c9 -2 25 -2 35 0 9 3 1 5 -18 5 -19 0 -27 -2 -17 -5z"/>
<path d="M7415 9491 c-132 -39 -296 -121 -368 -183 -17 -15 -1 -7 38 18 121
80 234 129 395 173 19 5 26 9 15 9 -11 0 -47 -8 -80 -17z"/>
<path d="M7908 9503 c6 -2 18 -2 25 0 6 3 1 5 -13 5 -14 0 -19 -2 -12 -5z"/>
<path d="M8005 9480 c33 -10 69 -21 80 -25 18 -6 18 -5 3 5 -22 14 -108 40
-128 39 -8 0 12 -9 45 -19z"/>
<path d="M8195 9405 c49 -26 101 -55 115 -64 40 -28 57 -34 31 -12 -29 26
-176 106 -211 116 -14 4 15 -14 65 -40z"/>
<path d="M7588 9363 c12 -2 30 -2 40 0 9 3 -1 5 -23 4 -22 0 -30 -2 -17 -4z"/>
<path d="M7668 9288 c5 -150 8 -165 10 -40 1 67 -1 122 -5 122 -5 0 -7 -37 -5
-82z"/>
<path d="M7788 9363 c12 -2 30 -2 40 0 9 3 -1 5 -23 4 -22 0 -30 -2 -17 -4z"/>
<path d="M7528 9353 c6 -2 18 -2 25 0 6 3 1 5 -13 5 -14 0 -19 -2 -12 -5z"/>
<path d="M7905 9345 c175 -38 335 -126 474 -259 110 -106 188 -226 243 -371
10 -28 16 -37 13 -20 -8 44 -77 185 -126 257 -78 114 -236 250 -372 319 -75
38 -227 89 -263 88 -18 0 -6 -6 31 -14z"/>
<path d="M7488 9343 c7 -3 16 -2 19 1 4 3 -2 6 -13 5 -11 0 -14 -3 -6 -6z"/>
<path d="M7448 9333 c7 -3 16 -2 19 1 4 3 -2 6 -13 5 -11 0 -14 -3 -6 -6z"/>
<path d="M7314 9286 c-186 -87 -349 -241 -454 -429 -18 -32 -31 -60 -28 -62 2
-3 21 28 43 67 92 171 259 328 440 414 50 24 86 43 80 43 -5 0 -42 -15 -81
-33z"/>
<path d="M8420 9264 c129 -112 214 -220 292 -369 26 -49 47 -85 47 -80 1 20
-99 196 -145 257 -56 74 -164 183 -214 217 -20 13 -12 3 20 -25z"/>
<path d="M7742 9208 l-2 -88 33 0 c50 0 184 -37 255 -70 34 -16 62 -27 62 -24
0 22 -246 104 -311 104 l-28 0 -4 83 -3 82 -2 -87z"/>
<path d="M6930 9208 c-66 -65 -146 -163 -171 -210 -21 -38 1 -15 37 40 21 31
78 99 128 150 49 50 88 92 85 92 -3 0 -38 -33 -79 -72z"/>
<path d="M7623 9123 c9 -2 23 -2 30 0 6 3 -1 5 -18 5 -16 0 -22 -2 -12 -5z"/>
<path d="M7530 9110 c-20 -6 -21 -8 -5 -8 11 0 34 4 50 8 27 7 27 8 5 8 -14 0
-36 -4 -50 -8z"/>
<path d="M7460 9090 c-18 -12 -2 -12 25 0 13 6 15 9 5 9 -8 0 -22 -4 -30 -9z"/>
<path d="M7364 9046 c-95 -51 -160 -102 -224 -178 -53 -63 -127 -184 -118
-193 2 -2 19 26 38 63 51 99 200 245 305 300 44 23 76 41 70 41 -5 1 -38 -14
-71 -33z"/>
<path d="M8125 8998 c160 -117 280 -303 308 -475 l12 -73 60 2 60 2 -55 3 -55
4 -16 83 c-31 159 -126 314 -257 417 -40 33 -76 59 -80 59 -4 0 7 -10 23 -22z"/>
<path d="M7637 8973 l32 -4 4 -117 3 -117 2 123 2 122 -37 -2 c-37 -1 -37 -1
-6 -5z"/>
<path d="M7747 8973 c-9 -9 -9 -225 1 -240 4 -6 6 44 4 112 l-4 124 39 4 38 4
-36 1 c-20 1 -39 -1 -42 -5z"/>
<path d="M6698 8885 c-22 -47 -39 -87 -37 -89 2 -2 23 36 46 85 23 49 39 89
37 89 -3 0 -23 -38 -46 -85z"/>
<path d="M7545 8960 c-13 -5 -14 -9 -5 -9 8 0 24 4 35 9 13 5 14 9 5 9 -8 0
-24 -4 -35 -9z"/>
<path d="M7885 8950 c32 -11 61 -18 63 -16 5 5 -89 36 -107 35 -9 0 11 -9 44
-19z"/>
<path d="M7420 8908 c-69 -39 -130 -86 -130 -101 0 -6 14 4 32 22 17 18 64 50
102 72 39 21 67 39 61 39 -5 0 -35 -14 -65 -32z"/>
<path d="M7961 8926 c19 -17 89 -54 89 -48 0 5 -18 18 -41 30 -36 20 -60 28
-48 18z"/>
<path d="M8064 8861 c4 -5 21 -20 39 -32 l32 -23 -20 23 c-22 25 -62 51 -51
32z"/>
<path d="M7237 8751 c-41 -53 -91 -157 -102 -211 -3 -19 -9 -44 -11 -55 -4
-15 -3 -17 4 -5 5 8 13 33 17 55 10 56 55 152 99 208 21 27 36 51 34 53 -3 2
-21 -18 -41 -45z"/>
<path d="M8164 8760 c61 -68 141 -258 121 -290 -3 -6 -1 -10 4 -10 39 0 -41
216 -112 301 -18 21 -36 39 -41 39 -4 0 8 -18 28 -40z"/>
<path d="M8760 8793 c0 -6 5 -24 11 -40 6 -15 19 -66 29 -113 10 -47 19 -75
19 -62 1 31 -28 157 -45 196 -7 17 -13 26 -14 19z"/>
<path d="M6800 8723 c-28 -75 -50 -177 -49 -228 1 -27 5 -15 11 35 5 41 22
113 38 160 32 98 33 120 0 33z"/>
<path d="M7581 8704 c-64 -32 -114 -82 -149 -149 -23 -43 -26 -62 -26 -140 0
-74 4 -99 23 -137 41 -85 125 -155 206 -171 33 -7 20 0 -45 24 -49 19 -117 84
-148 144 -23 43 -26 62 -26 140 0 74 4 98 22 132 45 85 111 142 195 169 23 7
33 13 21 13 -11 1 -44 -11 -73 -25z"/>
<path d="M7799 8719 c51 -16 103 -52 151 -106 44 -49 46 -43 4 13 -30 40 -111
92 -155 99 l-34 5 34 -11z"/>
<path d="M6615 8647 c-9 -42 -15 -86 -12 -99 4 -19 5 -18 6 7 1 17 8 59 16 94
9 35 13 66 11 68 -2 3 -12 -29 -21 -70z"/>
<path d="M8641 8644 c0 -11 3 -14 6 -6 3 7 2 16 -1 19 -3 4 -6 -2 -5 -13z"/>
<path d="M8657 8570 c3 -30 7 -57 9 -59 7 -8 2 64 -6 89 -6 16 -7 6 -3 -30z"/>
<path d="M6986 8578 c-3 -13 -5 -32 -5 -43 1 -11 5 -2 10 19 10 42 6 62 -5 24z"/>
<path d="M7645 8578 c-59 -32 -106 -104 -104 -160 1 -30 2 -30 10 10 25 127
132 187 238 133 45 -24 59 -39 77 -88 10 -28 13 -32 14 -15 0 31 -27 70 -74
103 -31 23 -49 29 -90 29 -28 0 -60 -6 -71 -12z"/>
<path d="M7990 8555 c0 -5 5 -17 10 -25 5 -8 10 -10 10 -5 0 6 -5 17 -10 25
-5 8 -10 11 -10 5z"/>
<path d="M8823 8505 c0 -27 2 -38 4 -22 2 15 2 37 0 50 -2 12 -4 0 -4 -28z"/>
<path d="M6592 8490 c0 -19 2 -27 5 -17 2 9 2 25 0 35 -3 9 -5 1 -5 -18z"/>
<path d="M8017 8445 c6 -91 11 -105 12 -30 0 33 -4 69 -8 80 -5 12 -7 -9 -4
-50z"/>
<path d="M6920 8460 l-45 -7 48 -1 c26 -1 47 3 47 8 0 6 -1 9 -2 8 -2 0 -23
-4 -48 -8z"/>
<path d="M6474 8446 c-3 -8 -4 -27 -2 -43 3 -27 5 -28 58 -29 l55 -1 -54 4
-53 4 5 40 c5 39 1 51 -9 25z"/>
<path d="M7298 8420 l4 -39 -88 -4 -89 -3 93 -2 92 -2 0 45 c0 25 -3 45 -8 45
-4 0 -6 -18 -4 -40z"/>
<path d="M8147 8453 c18 -2 50 -2 70 0 21 2 7 4 -32 4 -38 0 -55 -2 -38 -4z"/>
<path d="M8888 8453 c7 -3 16 -2 19 1 4 3 -2 6 -13 5 -11 0 -14 -3 -6 -6z"/>
<path d="M8931 8414 c0 -11 3 -14 6 -6 3 7 2 16 -1 19 -3 4 -6 -2 -5 -13z"/>
<path d="M7871 8376 c-2 -31 -40 -84 -77 -106 -22 -14 -51 -22 -81 -22 -36 0
-43 -2 -30 -9 60 -34 211 75 194 139 -4 14 -5 14 -6 -2z"/>
<path d="M8120 8378 c0 -5 38 -8 85 -8 83 0 85 -1 85 -24 0 -13 -9 -53 -20
-87 -10 -35 -17 -65 -15 -67 7 -8 47 137 43 160 -3 22 -8 23 -91 28 -48 3 -87
2 -87 -2z"/>
<path d="M6862 8373 l107 -4 4 -27 c5 -25 5 -25 3 3 l-1 30 -110 0 -110 1 107
-3z"/>
<path d="M7550 8372 c0 -36 72 -122 103 -122 6 0 -6 12 -27 26 -22 15 -46 44
-57 67 -10 23 -19 36 -19 29z"/>
<path d="M8441 8348 c2 -30 2 -31 6 -6 l4 27 107 4 107 3 -112 2 -113 2 1 -32z"/>
<path d="M8858 8373 c18 -2 45 -2 60 0 15 2 0 4 -33 4 -33 0 -45 -2 -27 -4z"/>
<path d="M6592 8340 c0 -19 2 -27 5 -17 2 9 2 25 0 35 -3 9 -5 1 -5 -18z"/>
<path d="M6756 8293 c10 -144 86 -340 175 -453 121 -155 321 -308 449 -344 14
-4 -20 15 -75 43 -292 146 -491 417 -540 734 -14 91 -14 91 -9 20z"/>
<path d="M8663 8320 c0 -25 2 -35 4 -22 2 12 2 32 0 45 -2 12 -4 2 -4 -23z"/>
<path d="M8817 8301 c-22 -203 -102 -402 -225 -564 -180 -238 -490 -415 -759
-434 -60 -4 -84 -10 -88 -21 -4 -11 -2 -12 7 -5 7 6 47 13 88 16 42 4 115 18
164 32 371 107 676 407 780 767 27 95 50 225 44 254 -2 10 -7 -10 -11 -45z"/>
<path d="M7997 8300 c-18 -49 -73 -116 -127 -153 -25 -17 -25 -17 6 -3 58 28
154 161 142 197 -2 5 -11 -13 -21 -41z"/>
<path d="M7131 8310 c-1 -19 19 -93 24 -88 2 2 -2 26 -10 53 -7 28 -14 43 -14
35z"/>
<path d="M6985 8275 c6 -50 25 -118 31 -113 2 3 -5 38 -16 79 -12 41 -18 56
-15 34z"/>
<path d="M8422 8250 c-7 -33 -15 -69 -18 -78 -5 -14 -4 -14 4 -2 13 20 35 116
30 131 -2 6 -9 -17 -16 -51z"/>
<path d="M6602 8260 c0 -19 2 -27 5 -17 2 9 2 25 0 35 -3 9 -5 1 -5 -18z"/>
<path d="M8652 8240 c0 -19 2 -27 5 -17 2 9 2 25 0 35 -3 9 -5 1 -5 -18z"/>
<path d="M6611 8209 c-1 -9 8 -50 18 -92 78 -301 298 -569 589 -716 76 -38
260 -101 293 -100 13 0 -8 9 -48 19 -212 56 -394 158 -541 306 -141 143 -237
312 -287 507 -13 51 -24 85 -24 76z"/>
<path d="M7160 8205 c0 -5 5 -17 10 -25 5 -8 10 -10 10 -5 0 6 -5 17 -10 25
-5 8 -10 11 -10 5z"/>
<path d="M8631 8154 c-7 -26 -23 -74 -36 -108 -15 -36 -18 -53 -9 -41 17 23
69 183 62 191 -3 3 -11 -16 -17 -42z"/>
<path d="M8227 8145 c-9 -19 -15 -35 -12 -35 7 0 37 61 33 66 -3 2 -12 -12
-21 -31z"/>
<path d="M7180 8154 c0 -6 7 -19 16 -30 14 -18 14 -18 3 6 -14 31 -19 36 -19
24z"/>
<path d="M7025 8130 c4 -14 26 -58 48 -99 44 -78 172 -209 238 -244 33 -17 33
-17 9 0 -123 90 -194 169 -258 288 -24 44 -40 69 -37 55z"/>
<path d="M8380 8118 c-42 -104 -151 -233 -257 -303 -98 -64 -100 -66 -58 -46
72 35 162 109 218 178 53 65 124 189 114 199 -2 3 -10 -10 -17 -28z"/>
<path d="M7763 8110 c-22 -9 -23 -14 -23 -145 0 -149 1 -151 60 -135 l35 9
-40 -2 -40 -2 -3 131 -3 131 33 10 c18 6 26 11 18 11 -8 1 -25 -3 -37 -8z"/>
<path d="M7221 8078 c18 -34 129 -140 169 -162 42 -23 33 -14 -43 43 -31 24
-73 65 -93 92 -38 52 -53 64 -33 27z"/>
<path d="M7670 7968 c-3 -75 -1 -134 3 -129 4 4 6 66 5 137 l-3 129 -5 -137z"/>
<path d="M8187 8078 c-55 -84 -191 -185 -291 -219 -35 -11 -46 -17 -27 -14
105 16 273 139 335 243 13 21 -1 13 -17 -10z"/>
<path d="M8540 7937 c-92 -165 -256 -313 -455 -409 -44 -21 -69 -36 -55 -32
81 22 237 120 337 211 79 72 215 254 201 268 -3 3 -15 -14 -28 -38z"/>
<path d="M7435 7891 c20 -20 146 -61 183 -60 33 1 32 2 -15 10 -29 5 -81 20
-115 34 -34 14 -58 21 -53 16z"/>
<path d="M7425 7729 c22 -10 47 -18 55 -18 8 0 -7 9 -35 19 -63 25 -73 24 -20
-1z"/>
<path d="M7970 7730 c-8 -5 -10 -10 -5 -10 6 0 17 5 25 10 8 5 11 10 5 10 -5
0 -17 -5 -25 -10z"/>
<path d="M7890 7704 l-45 -14 40 6 c22 3 47 10 55 15 21 12 3 10 -50 -7z"/>
<path d="M7515 7700 c11 -5 29 -8 40 -8 16 0 15 2 -5 8 -34 11 -60 11 -35 0z"/>
<path d="M7598 7683 c12 -2 30 -2 40 0 9 3 -1 5 -23 4 -22 0 -30 -2 -17 -4z"/>
<path d="M7778 7683 c12 -2 32 -2 45 0 12 2 2 4 -23 4 -25 0 -35 -2 -22 -4z"/>
<path d="M7674 7560 c0 -69 1 -97 3 -62 2 34 2 90 0 125 -2 34 -3 6 -3 -63z"/>
<path d="M7742 7553 c-1 -56 1 -104 6 -106 4 -3 6 27 4 66 -5 129 -9 144 -10
40z"/>
<path d="M7930 7474 c-30 -8 -36 -12 -20 -12 14 0 41 6 60 13 44 17 20 17 -40
-1z"/>
<path d="M7457 7470 c13 -5 46 -12 75 -14 52 -6 52 -5 -12 9 -75 16 -94 18
-63 5z"/>
<path d="M7800 7450 c-34 -7 -34 -7 -5 -8 17 0 44 4 60 8 27 7 27 8 5 8 -14
-1 -41 -4 -60 -8z"/>
<path d="M7608 7443 c12 -2 30 -2 40 0 9 3 -1 5 -23 4 -22 0 -30 -2 -17 -4z"/>
<path d="M6258 7283 c5 -76 10 -83 11 -15 0 34 -2 62 -7 62 -4 0 -6 -21 -4
-47z"/>
<path d="M6195 7305 c-25 -12 -26 -14 -5 -9 28 7 60 23 45 23 -5 0 -23 -6 -40
-14z"/>
<path d="M7563 7293 c15 -2 37 -2 50 0 12 2 0 4 -28 4 -27 0 -38 -2 -22 -4z"/>
<path d="M6067 7258 c-42 -17 -75 -33 -73 -35 3 -4 157 55 165 63 10 10 -19 1
-92 -28z"/>
<path d="M7657 7282 c6 -4 13 -30 15 -57 3 -50 3 -50 38 -51 35 -1 35 -1 3 3
-33 4 -33 5 -33 59 0 45 -3 54 -17 54 -12 0 -14 -3 -6 -8z"/>
<path d="M7742 7220 c0 -14 2 -19 5 -12 2 6 2 18 0 25 -3 6 -5 1 -5 -13z"/>
<path d="M5863 7177 c-40 -17 -71 -32 -69 -34 4 -4 143 51 153 60 12 13 -12 5
-84 -26z"/>
<path d="M6253 7115 c0 -44 2 -61 4 -37 2 23 2 59 0 80 -2 20 -4 1 -4 -43z"/>
<path d="M5730 7125 c-33 -19 -21 -19 21 0 19 8 27 14 19 14 -8 0 -26 -6 -40
-14z"/>
<path d="M5645 7089 c-22 -10 -29 -16 -15 -13 28 7 80 33 65 33 -5 0 -28 -9
-50 -20z"/>
<path d="M5570 7060 c-8 -5 -10 -10 -5 -10 6 0 17 5 25 10 8 5 11 10 5 10 -5
0 -17 -5 -25 -10z"/>
<path d="M7110 6570 l0 -500 -330 0 -330 0 0 -350 0 -350 -492 -2 -493 -3 -3
-492 -2 -493 -453 -2 -452 -3 -3 -416 -2 -416 -48 -7 c-26 -3 -211 -6 -412 -6
-201 0 -371 0 -377 0 -10 0 -13 -97 -13 -450 l0 -450 -467 -2 -468 -3 -3 -407
-2 -408 -390 0 -390 0 0 -535 0 -535 3190 0 3190 0 -2 3163 -3 3162 -622 3
-623 2 0 -500z"/>
<path d="M5495 7031 c-22 -11 -35 -19 -30 -19 14 -1 93 36 80 37 -5 0 -28 -8
-50 -18z"/>
<path d="M5332 6968 c-40 -17 -71 -32 -69 -34 4 -4 147 52 156 61 10 11 -17 2
-87 -27z"/>
<path d="M6235 6837 c-4 -85 -5 -161 -3 -169 3 -7 8 61 12 150 4 90 5 166 3
168 -3 3 -8 -64 -12 -149z"/>
<path d="M5182 6908 c-29 -12 -51 -23 -49 -25 5 -4 117 36 117 43 0 7 -13 4
-68 -18z"/>
<path d="M5090 6870 c-9 -6 -10 -10 -3 -10 6 0 15 5 18 10 8 12 4 12 -15 0z"/>
<path d="M5115 6795 c44 -32 135 -98 203 -148 67 -49 124 -88 126 -86 4 5
-377 282 -396 288 -7 2 23 -22 67 -54z"/>
<path d="M6224 6555 c0 -55 1 -76 3 -47 2 29 2 74 0 100 -2 26 -3 2 -3 -53z"/>
<path d="M5451 6527 c-13 -21 -12 -21 5 -5 10 10 16 20 13 22 -3 3 -11 -5 -18
-17z"/>
<path d="M5289 6313 c-159 -210 -168 -223 -152 -208 6 6 73 91 148 190 76 99
142 186 147 193 6 6 8 12 5 12 -3 0 -70 -84 -148 -187z"/>
<path d="M6214 6365 c0 -49 1 -71 3 -48 2 23 2 64 0 90 -2 26 -3 8 -3 -42z"/>
<path d="M5714 6204 c-138 -182 -155 -204 -150 -204 5 0 223 281 239 308 5 6
6 12 4 12 -3 0 -45 -52 -93 -116z"/>
<path d="M5894 6282 c6 -10 196 -150 241 -177 57 -35 10 2 -118 94 -71 51
-126 88 -123 83z"/>
<path d="M6203 6185 c0 -44 2 -61 4 -37 2 23 2 59 0 80 -2 20 -4 1 -4 -43z"/>
<path d="M4983 5917 c-163 -212 -196 -257 -189 -257 3 0 25 26 48 58 49 65
253 328 276 355 8 9 11 17 6 16 -5 0 -68 -78 -141 -172z"/>
<path d="M5508 5936 c-24 -29 -74 -95 -113 -146 -38 -50 -111 -144 -161 -208
-92 -119 -492 -641 -637 -832 -44 -58 -85 -111 -90 -117 -5 -7 -7 -13 -4 -13
5 0 79 96 357 460 69 91 148 194 176 230 27 36 135 175 239 310 104 135 211
273 238 308 27 34 46 62 43 62 -3 0 -24 -24 -48 -54z"/>
<path d="M4744 5603 c-57 -72 -63 -81 -42 -64 18 13 91 111 84 111 -2 0 -21
-21 -42 -47z"/>
<path d="M4669 5503 c-13 -16 -12 -17 4 -4 16 13 21 21 13 21 -2 0 -10 -8 -17
-17z"/>
<path d="M4638 5463 c-8 -10 -79 -103 -158 -208 -79 -104 -147 -196 -153 -202
-5 -7 -7 -13 -4 -13 3 0 76 93 163 208 86 114 161 213 167 220 15 19 2 14 -15
-5z"/>
<path d="M3506 5264 c-5 -14 -4 -15 9 -4 12 10 35 -4 141 -90 70 -57 124 -98
120 -92 -10 17 -243 202 -254 202 -5 0 -13 -7 -16 -16z"/>
<path d="M3425 5133 c-38 -60 -75 -118 -83 -130 -8 -13 -12 -23 -9 -23 2 0 38
53 79 118 86 135 91 142 85 142 -3 0 -35 -48 -72 -107z"/>
<path d="M3790 5066 c0 -7 321 -268 325 -264 2 2 -46 44 -107 93 -178 144
-218 176 -218 171z"/>
<path d="M4243 4938 c-65 -88 -104 -146 -71 -108 48 57 152 200 145 200 -3 0
-36 -42 -74 -92z"/>
<path d="M3314 4958 c-4 -7 -14 -24 -22 -38 -14 -24 -13 -24 3 -5 20 24 37 55
31 55 -3 0 -8 -6 -12 -12z"/>
<path d="M3260 4868 c-12 -22 -12 -22 6 -6 10 10 15 20 12 24 -4 3 -12 -5 -18
-18z"/>
<path d="M3149 4693 c-40 -65 -79 -128 -87 -140 -8 -13 -12 -23 -9 -23 3 0 38
53 78 118 40 64 79 127 87 140 8 12 12 22 9 22 -3 0 -38 -53 -78 -117z"/>
<path d="M3504 4583 c-121 -152 -137 -173 -130 -173 2 0 55 64 117 143 134
169 133 167 127 167 -2 0 -54 -62 -114 -137z"/>
<path d="M3681 4687 c2 -2 53 -41 113 -87 61 -46 107 -79 103 -73 -9 14 -203
163 -213 163 -4 0 -5 -1 -3 -3z"/>
<path d="M4478 4593 c-8 -10 -53 -67 -98 -128 -46 -60 -88 -116 -93 -122 -5
-7 -7 -13 -4 -13 3 0 53 63 111 140 59 77 105 140 103 140 -2 0 -11 -8 -19
-17z"/>
<path d="M2989 4438 c-29 -46 -59 -93 -67 -105 -8 -13 -12 -23 -9 -23 3 0 29
37 58 83 29 45 59 92 67 105 8 12 12 22 9 22 -3 0 -29 -37 -58 -82z"/>
<path d="M3910 4516 c0 -2 8 -10 18 -17 15 -13 16 -12 3 4 -13 16 -21 21 -21
13z"/>
<path d="M3950 4487 c0 -3 18 -20 40 -37 22 -17 40 -29 40 -27 0 3 -18 20 -40
37 -22 17 -40 29 -40 27z"/>
<path d="M4040 4417 c0 -3 17 -17 37 -33 20 -15 33 -23 29 -16 -8 13 -66 56
-66 49z"/>
<path d="M3250 4263 c-61 -76 -124 -154 -139 -173 -16 -19 -203 -253 -416
-520 -213 -267 -392 -491 -397 -497 -6 -7 -8 -13 -5 -13 3 0 230 280 504 622
274 342 515 644 536 670 21 27 37 48 34 48 -3 0 -55 -62 -117 -137z"/>
<path d="M4155 4326 c22 -20 49 -42 60 -48 26 -14 11 0 -50 46 l-50 38 40 -36z"/>
<path d="M4259 4303 c-13 -16 -12 -17 4 -4 16 13 21 21 13 21 -2 0 -10 -8 -17
-17z"/>
<path d="M2800 4138 c-57 -90 -110 -173 -118 -185 -8 -13 -12 -23 -9 -23 3 0
54 78 114 173 128 201 125 197 120 197 -2 0 -51 -73 -107 -162z"/>
<path d="M2611 3839 c-29 -45 -59 -92 -68 -105 -8 -13 -13 -24 -10 -24 3 0 29
37 58 83 29 45 59 92 67 105 8 12 12 22 9 22 -3 0 -28 -36 -56 -81z"/>
<path d="M2433 3563 c-50 -76 -153 -237 -230 -358 -77 -121 -165 -258 -195
-305 -68 -106 -70 -110 -65 -110 3 0 27 35 54 78 273 427 386 602 447 696 84
129 89 136 83 136 -3 0 -45 -62 -94 -137z"/>
<path d="M2203 2953 c-110 -137 -175 -223 -169 -223 2 0 61 72 130 160 69 88
124 160 121 160 -2 0 -39 -44 -82 -97z"/>
<path d="M1881 2699 c-34 -56 -42 -81 -10 -34 25 37 51 85 46 85 -2 0 -18 -23
-36 -51z"/>
<path d="M1980 2672 c-19 -25 -54 -69 -78 -96 -24 -28 -48 -60 -53 -71 -9 -17
-8 -18 3 -5 53 63 169 212 166 215 -1 2 -19 -18 -38 -43z"/>
<path d="M1826 2613 c-6 -14 -5 -15 5 -6 7 7 10 15 7 18 -3 3 -9 -2 -12 -12z"/>
<path d="M1754 2498 c-31 -51 -62 -99 -68 -107 -8 -11 -8 -13 1 -8 6 4 32 41
57 83 25 41 53 86 62 99 9 14 14 25 11 25 -3 0 -31 -42 -63 -92z"/>
<path d="M1765 2404 c-92 -117 -97 -124 -92 -124 4 0 140 168 151 188 17 29
-4 7 -59 -64z"/>
<path d="M1560 2180 c-6 -11 -8 -20 -6 -20 3 0 10 9 16 20 6 11 8 20 6 20 -3
0 -10 -9 -16 -20z"/>
<path d="M1554 2138 l-19 -23 23 19 c21 18 27 26 19 26 -2 0 -12 -10 -23 -22z"/>
<path d="M1477 2042 l-28 -47 30 35 c17 19 31 41 31 48 0 18 -3 15 -33 -36z"/>
</g>
</svg>
